<svg xmlns="http://www.w3.org/2000/svg" width="70" height="64" viewBox="0 0 70 64"><g><g><path fill="#c45f4b" d="M21.667 32c-3.721.107-7.085 1.71-9.482 4.562H7.39c-3.578 0-6.942-1.71-6.942-5.667 0-2.887-.107-12.583 4.437-12.583.752 0 4.473 3.03 9.303 3.03 1.646 0 3.22-.285 4.76-.82a17.352 17.352 0 0 0-.18 2.353c0 3.244 1.038 6.452 2.899 9.125zm38.322 22.705c0 5.775-3.828 9.232-9.554 9.232H19.162c-5.725 0-9.554-3.457-9.554-9.232 0-8.055 1.897-20.424 12.38-20.424 1.217 0 5.654 4.955 12.81 4.955 7.157 0 11.594-4.955 12.81-4.955 10.485 0 12.381 12.369 12.381 20.424zM23.35 9.187c0 5.026-4.115 9.125-9.16 9.125-5.046 0-9.16-4.099-9.16-9.125 0-5.025 4.114-9.125 9.16-9.125 5.045 0 9.16 4.1 9.16 9.125zm25.19 13.688c0 7.557-6.154 13.687-13.74 13.687s-13.74-6.13-13.74-13.687c0-7.557 6.154-13.688 13.74-13.688s13.74 6.131 13.74 13.688zm20.597 8.02c0 3.957-3.35 5.667-6.928 5.667h-4.795c-2.397-2.851-5.76-4.455-9.482-4.562 1.86-2.673 2.898-5.881 2.898-9.125 0-.784-.071-1.568-.179-2.353 1.539.535 3.113.82 4.76.82 4.83 0 8.551-3.03 9.302-3.03 4.53 0 4.424 9.696 4.424 12.583zM64.569 9.187c0 5.026-4.115 9.125-9.16 9.125s-9.16-4.099-9.16-9.125c0-5.025 4.115-9.125 9.16-9.125s9.16 4.1 9.16 9.125z"/></g></g></svg>