<svg xmlns="http://www.w3.org/2000/svg" width="71" height="66" viewBox="0 0 71 66"><g><g><path fill="#3d5f12" d="M33.133 33.498c0-5.312-4.236-9.64-9.43-9.64s-9.43 4.328-9.43 9.64 4.236 9.644 9.43 9.644 9.43-4.332 9.43-9.644zm27.734 18.9c0-2.482-2.136-4.54-4.715-4.54-2.578 0-4.715 2.058-4.715 4.54 0 2.518 2.137 4.54 4.715 4.54 2.616 0 4.715-2.057 4.715-4.54zm-.003-37.722c-.095-2.498-2.193-4.544-4.712-4.819-2.578 0-4.715 2.104-4.715 4.643 0 2.575 2.137 4.643 4.715 4.643 2.555 0 4.617-2.008 4.712-4.467zm.003.177V14.5c0 .059-.001.118-.003.176l.003.177zM47 30.361v6.814c0 .48-.347 1.032-.797 1.105l-5.482.884c-.295.958-.7 1.879-1.179 2.8 1.031 1.473 2.136 2.836 3.298 4.236.139.22.243.442.243.736 0 .258-.07.516-.243.7-.72.983-4.845 5.408-5.913 5.408-.295 0-.553-.109-.774-.254l-4.236-3.264c-.92.471-1.842.834-2.836 1.124-.184 1.85-.368 3.845-.847 5.622-.148.508-.59.87-1.105.87h-6.852c-.515 0-1.03-.398-1.105-.906l-.847-5.55c-.957-.29-1.878-.689-2.762-1.124l-4.347 3.228c-.184.181-.479.254-.737.254a1.2 1.2 0 0 1-.773-.29c-.958-.87-5.304-4.752-5.304-5.818 0-.257.11-.478.258-.7 1.068-1.399 2.173-2.762 3.241-4.198-.516-.995-.958-1.99-1.29-3.02l-5.598-.885c-.516-.074-.884-.552-.884-1.068V30.25c0-.478.368-1.031.847-1.105l5.71-.884c.294-.957.7-1.878 1.178-2.8-1.031-1.473-2.136-2.835-3.315-4.235-.147-.221-.258-.479-.258-.737s.074-.516.258-.736c.737-.995 4.862-5.452 5.93-5.452.295 0 .553.11.774.258l4.236 3.315c.92-.479 1.842-.847 2.836-1.179.184-1.842.369-3.867.847-5.672.148-.516.59-.884 1.105-.884h6.852c.515 0 1.031.405 1.105.92l.847 5.636c.958.295 1.879.7 2.763 1.142l4.346-3.278c.221-.184.479-.258.737-.258.294 0 .552.11.773.295.958.884 5.279 4.862 5.279 5.893 0 .258-.105.479-.243.7-1.058 1.437-2.163 2.763-3.194 4.2.479.994.92 1.988 1.252 3.02l5.374.847c.485.11.832.59.832 1.105zm23.297 19.6v4.92c0 .532-4.752 1.028-5.489 1.099a9.355 9.355 0 0 1-1.105 1.878c.332.737 1.879 4.42 1.879 5.289 0 .11-.037.184-.147.257-.442.258-4.384 2.616-4.568 2.616-.479 0-3.241-3.684-3.61-4.236h-2.21c-.368.552-3.13 4.236-3.61 4.236-.173 0-3.882-2.358-4.298-2.616a.325.325 0 0 1-.139-.257c0-.627 1.456-4.347 1.768-5.084a9.26 9.26 0 0 1-1.04-1.9c-.693-.072-5.166-.58-5.166-1.124V49.96c0-.544 4.473-1.052 5.166-1.124.277-.653.624-1.311 1.04-1.9C48.456 46.2 47 42.478 47 41.852c0-.073.035-.184.139-.258.416-.22 4.125-2.578 4.298-2.578.48 0 3.242 3.647 3.61 4.2h2.21c1.032-1.437 2.137-2.874 3.39-4.126l.22-.074c.184 0 4.126 2.32 4.568 2.578a.32.32 0 0 1 .147.258c0 .663-1.547 4.347-1.879 5.083.442.59.81 1.248 1.105 1.9.737.073 5.489.58 5.489 1.125zm0-38v5.078c0 .544-4.752 1.052-5.489 1.124-.294.69-.663 1.311-1.105 2.182.332.736 1.879 4.42 1.879 5.083 0 .11-.037.184-.147.258-.442.258-4.384 2.615-4.568 1.489-.479 0-3.241-3.683-3.61-4.236h-2.21c-.368.553-3.13 4.236-3.61 4.236-.173 0-3.882-2.357-4.298-2.615a.325.325 0 0 1-.139-.258c0-.626 1.456-4.347 1.768-5.083a9.1 9.1 0 0 1-1.04-1.916c-.693-.073-5.166-.59-5.166-1.142v-5.156c0-.553 4.473-1.069 5.166-1.142.277-.663.624-1.326 1.04-1.916C48.456 7.211 47 3.49 47 2.864c0-.074.035-.184.139-.258.416-.22 4.125-2.578 4.298-2.578.48 0 3.242 3.647 3.61 4.199h2.21c1.032-1.437 2.137-2.873 3.39-4.125l.22-.074c.184 0 4.126 2.32 4.568 2.578a.32.32 0 0 1 .147.258c0 .663-1.547 4.347-1.879 6.073.442.589.81 1.247 1.105 1.9.737.072 5.489.58 5.489 1.124z"/></g></g></svg>