<svg xmlns="http://www.w3.org/2000/svg" width="64" height="63" viewBox="0 0 64 63"><g><g><path fill="#cf9d41" d="M32.073.062c17.6 0 31.803 13.635 31.803 31.055 0 17.553-14.204 31.82-31.803 31.82-17.32 0-31.42-14.267-31.42-31.82 0-17.42 14.1-31.055 31.42-31.055zm11.406 20.959c-.722.041-1.024.683-1.38.8.178-.059.356-.8.463-.828.584-.049 1.082-.194 1.412-.378.702-.322 1.404-.414 2.147-.553.702-.029 1.57-.029 2.106.507-.124-.138.867-.602.991-.61.372-.138.991-.022 1.239-.547.082-.175.082-1.075.082-1.075-.701.09-.95-.635-.99-1.27 0 .046-.083.182-.248.363.041-.68-.744-.18-1.033-.272-.95-.272-.825-.997-1.114-1.768-.166-.408-.62-.578-.785-1.14-.165-.31-.248-.837-.62-.877-.247-.04-.701.94-.784.877-.371-.269-.537.125-.826.375-.213.216-.397.152-.602.251.481-.37-.87-.88-1.249-.816.852-.165.237-.77-.048-.998h.18c-.072-.369-1.077-.697-1.4-.943-.323-.246-2.044-.656-2.403-.41-.432.287.107 1.107.107 1.488.036.404-.43.505-.43.887 0 .83 1.148.683.86 1.806-.178.683-.86.83-1.15 1.366-.288.489.037 1.367.325 1.713.288.327-.505.91-.613.99-.613.166-1.081-.943-1.435-1.648-.422-.517-.562-1.127-1.281-1.41-.263-.082-.79-.206-.883.048-.14-.625-.633-.873-1.676-.934-.817-.3-1.512-.3-2.37-.171.286-.043-.081-1.376-.776-1.161.205-.43.123-.903.205-1.333.081-.344.245-.688.49-.99.081-.171.98-1.16.694-1.204.694.087 1.47.13 2.267-.492.58-.402.674-1.073.885-1.318.305-.745.68.165 1.251.206 1.62.041 1.584-1.007.35-1.49 1.306.052.282-.857-.218-.969-.393-.111-1.31.223-.893.484-.1-.046-.658 2.048-1.277 1-.39-.257-.53-1.111-.92-1.148-.345 0-.562.335-.692.559.217-.485-.875-.82-1.191-.857.566-.373.136-.783-.465-1.028-.417-.166-1.719-.326-2.083-.033-.751.76 1.041.86 1.562 1.072.156.08.781.358.417.557-.313.12-1.25.32-1.354.483-.313.365.364.77-.104 1.135-.47-.365-.47-.973-.816-1.38h-3c-.077-.157-.078-1.02.151-.88-.352-.23-.587-.459-.823-.59-1.305.364-2.453.874-3.305 1.512.163.04.243.04.375-.042.212-.119.398-.318.61-.477.39-.159 1.235-.596 1.679-.278.04-.08.16-.153.201-.186.282.305.564.623.806.983-.322-.16-.846-.081-1.209-.042-.282.082-.765.163-.886.488.12.203.282.527.201.73-.524-.365-.871-.973-1.349-1.055-.212 0-.518 0-.79.041-4.359 2.15-7.98 5.273-10.314 9.607.16.181.322.317.483.362.402.136 0 1.594.765.771.241.24.282.648.12 1.056.04-.058 1.682.521 1.818.563.318.125.817.27.954.437.09.184-.182.65-.454.825-.046-.116-.727-.804-.817-.72-.131.253-.002 1.533.492 1.505-.702.057-.402 2.565-.583 3.05 0 .042.09.042.09.042-.13.487.317 2.671 1.22 2.469-.573.139 1.051 2.084 1.277 2.21.59.384 1.271.639 1.68 1.192.454.596.454 1.489 1.09 1.957-.182.51.953 1.056.907 1.708-.09.039-.136.039-.227.077.227.537 1.09.537 1.408 1.037.181.307 0 1.036.59.882.053-.844-.59-1.689-1.09-2.38-.272-.384-.544-.728-.772-1.154-.226-.383-.272-.85-.453-1.276.181.042 1.18.383 1.089.51-.363.851 1.358 2.227 1.65 2.726.08.116.813 1.267.371 1.267.483 0 1.208.768 1.45 1.152.362.576.282 1.345.524 2.02.241.845 1.37 1.225 2.014 1.605.565.296 1.048.718 1.612.93.843.337 1.042.042 1.765-.085 1.062-.169 1.185 1.056 2.043 1.52.528.295 1.664.715 2.704.469-.4.115.507 1.577.553 1.678.211.41.67.614 1.108 1.104a.78.78 0 0 0 .297-.358c-.126.487.838 1.405 1.372 1.315.6-.09.762-1.094.762-1.413-1.09.41-2.07.068-2.562-.613-.088-.171-.625-1.126-.175-1.126.885 0 .262-.633.175-1.224-.088-.592-.578-.972-.742-1.479-.14.507-.61.38-.75-.042 0 .127-.07.338-.07.507-.487 0-.916.042-1.12-.042.082-.507.123-1.14.244-1.69.487-.76 1.555-2.231-.203-2.155-.613.043-.858.297-1.062.846-.204.507-.123.971-.695 1.225-.367.169-1.593.084-1.96-.127-.761-.464-1.28-1.944-1.28-2.711-.04-1.037.519-1.958 0-2.918.24-.192.479-.576.757-.942.24-.165.523.123.645-.372-.103-.164-.235-.465-.298-.557.619.564 1.736-.572 2.259-.027.327.584.694.667.899-.194.04-.172-.286-.621-.123-.92.123.635.572.748 1.353.336.583.225.958.15 1.216 1.061.258.298.305.732.711.128.35.489.394.489.525.95.131.422.458 1.497 1.003 1.689 1.145.499.872-.845.763-1.306-.054-.038-.054-1.333-.109-1.333-1.7-.298-1.09-1.362-.109-2.085.164-.085 1.277-.425 1.69-.766.32-.34.711-.935.533-1.489.178 0 .32-.17.392-.382-.107-.043-.534-.468-.605-.426.249-.17.213-.425.071-.68.356-.35.178-.956.534-1.119.39.77 1.173-.081.782-.57.355-.569 1.173-.284 1.386-.813.534.163.142-.61.427-1.057.249-.367.985-.367 1.58-.57 0 .04 1.032-.57.702-.61.702.081 2.106-.651 1.032-1.26.165-.526-.372-.759-.743-.875.289-.042.66.116.908-.014.537-.063.165-.09-.289-.111-.578-.185-1.321.034-1.775.083zM24.562 7.062a.163.163 0 0 0-.008-.005l.008.005zm12.074 51c5.357-1.094 10.807-4.194 14.605-8.617-.247-.273-.702-.182-1.032-.364-.33-.137-.578-.274-.99-.365.082-.912-.827-1.231-1.405-1.687-.537-.364-.867-.74-1.651-.603-.083.034-.909.273-.744.41-.536-.376-.784-.58-1.486-.75-.884-.171-1.585-.853-2.154-.24-.284.273-.142.682-.284.955-.462-.375.427-.818.071-1.227-.427-.477-1.173.307-1.529.511-.213.17-.462.239-.604.443-.178.239-.249.592-.391.911-.107-.365-.736-.273-.78-.536.175 1.083.175 2.223.353 3.317.107.639 0 1.687-.484 2.189-.525.501-1.331 1.048-1.44 1.824-.11.547.054 1.048.654 1.185.054.684-.872 1.185-.818 1.915 0 .045.055.501.11.73z"/></g></g></svg>