<svg xmlns="http://www.w3.org/2000/svg" width="57" height="64" viewBox="0 0 57 64"><g><g><path fill="#7da3b7" d="M55.809 12.355c.555 2.228.866 4.553.97 6.948.49 11.685-4.844 20.683-13.53 28.087-4.209 3.631-9.238 6.403-14.66 7.755a32.932 32.932 0 0 1-10.619.864c-1.854-.145-5.84-1.543-7.266-1.188-1.784.445-2.106 8.27-5.209 9.043-2.247.56-3.2-.378-4.574-1.782-.472-.528-.775-.68-.962-1.43-.927-3.718 5.413-8.374 4.896-10.447-.08-.321-1.48-1.984-1.8-2.664a22.149 22.149 0 0 1-1.248-3.637C-1.027 32.54 6.02 22.365 15.335 16.568c6.714-4.219 22.957-5.317 26.75-11.226 1.507-2.312 2.051-4.232 5.047-4.98 4.03-1.004 7.94 9.034 8.677 11.993zM39.276 23.857a2.368 2.368 0 0 0-2.852-1.715c-12.626 3.148-19.44 10.462-25.407 21.63-.312.571-.437 1.134-.276 1.777a2.371 2.371 0 0 0 2.853 1.718c.642-.16 1.079-.534 1.435-1.079 1.356-2.008 2.498-4.115 3.809-6.15C23.84 32.603 28.79 28.9 37.563 26.713a2.371 2.371 0 0 0 1.712-2.856z"/></g></g></svg>