<svg xmlns="http://www.w3.org/2000/svg" width="16" height="16" viewBox="0 0 16 16"><g><g><path fill="#fff" d="M8.585 12.775c0-1.23-1.361-1.916-2.18-2.54-.12-.018-.234-.018-.356-.018-1.538 0-4.28.458-4.28 2.285 0 1.687 2.427 2.338 4.052 2.338 1.063 0 2.764-.528 2.764-2.065zM7.338 4.817c0-1.316-.711-3.715-2.153-3.715-1.472 0-2.192 1.09-2.192 2.23 0 1.353 1.124 3.206 2.907 3.206.977 0 1.438-.771 1.438-1.72zM6.278.5h3.561l-1.509.66h-.618c1.012.586 1.474 1.735 1.474 2.849 0 2.085-2.253 2.24-2.253 3.549 0 1.322 2.956 1.845 2.956 4.461 0 1.01-.509 1.828-1.294 2.478-1.195.773-2.46 1.003-3.93 1.003C2.236 15.5 0 14.926 0 12.907c0-.413.148-.818.342-1.187.795-1.602 3.593-2.109 5.636-2.163-.235-.441-.456-.954-.456-1.528 0-.338.085-.563.157-.886a4.117 4.117 0 0 1-.696.055c-2.18 0-3.795-1.307-3.795-2.871C1.188 2.513 2.566 1 4.612.667 5.298.558 5.828.5 6.278.5zM16 2.835v1.273h-2.366v1.994h-1.27V4.108h-2.41V2.835h2.41V.5h1.27v2.335z"/></g></g></svg>