<svg xmlns="http://www.w3.org/2000/svg" width="14" height="14" viewBox="0 0 14 14"><g><g><path fill="#fff" d="M2.271 10.182c-.977 0-1.771.855-1.771 1.909S1.294 14 2.271 14c.979 0 1.772-.855 1.772-1.91 0-1.053-.793-1.908-1.772-1.908zM6.35 7.696C4.957 6.185 3.102 5.26 1.137 5.09H1.09a.544.544 0 0 0-.396.169.626.626 0 0 0-.194.467V7.07c0 .328.23.596.535.626 2.814.288 5.047 2.695 5.315 5.727.028.328.277.577.581.577h1.246c.166 0 .323-.07.434-.209a.674.674 0 0 0 .156-.477c-.156-2.118-1.015-4.117-2.417-5.618zm3.322-3.58C7.383 1.641 4.348.18 1.118 0H1.09a.552.552 0 0 0-.406.179A.632.632 0 0 0 .5.636v1.422c0 .328.24.607.554.627 5.36.338 9.633 4.941 9.937 10.718.018.338.277.597.59.597h1.32c.166 0 .314-.07.424-.199a.638.638 0 0 0 .174-.467c-.174-3.48-1.53-6.752-3.827-9.218z"/></g></g></svg>