<svg xmlns="http://www.w3.org/2000/svg" width="16" height="16" viewBox="0 0 16 16"><g><g><path fill="#fff" d="M15.5 8.377C15.5 4.135 11.986.5 8.112.5 3.85.5.5 4.135.5 8.377c0 3.247 1.742 5.703 4.556 6.626-.02-.419-.01-.923.128-1.373 0 0 .147-.481.974-4.13-.25-.505-.25-1.257-.25-1.257 0-1.175.659-2.053 1.477-2.053.697 0 1.035.548 1.035 1.197 0 .722-.447 1.804-.677 2.804-.19.845.41 1.525 1.086 1.525 1.127 0 1.884-1.927 1.884-4.205 0-1.668-.88-2.736-2.521-2.736-2.322 0-3.743 1.489-3.743 3.488 0 .691.196 1.175.5 1.557.137.175.157.237.107.443-.039.144-.117.495-.156.629-.05.206-.206.278-.373.206-1.178-.454-1.733-1.67-1.733-3.03 0-2.183 1.998-5.155 5.607-5.155 2.272 0 4.805 2.557 4.805 4.742 0 3.113-2.227 5.432-4.246 5.432-.668 0-1.446-.464-1.705-.99-.449 1.618-.538 1.882-.538 1.882-.16.458-.489.916-.778 1.273a9.489 9.489 0 0 0 2.173.248c3.874 0 7.388-2.753 7.388-7.123z"/></g></g></svg>